<?xml version="1.0" standalone="no"?><svg xmlns="http://www.w3.org/2000/svg" viewBox="0 0 1440 320"><path fill="#ffffff" fill-opacity="1" d="M0,64L7.7,106.7C15.5,149,31,235,46,272C61.9,309,77,299,93,256C108.4,213,124,139,139,106.7C154.8,75,170,85,186,117.3C201.3,149,217,203,232,229.3C247.7,256,263,256,279,240C294.2,224,310,192,325,192C340.6,192,356,224,372,234.7C387.1,245,403,235,418,213.3C433.5,192,449,160,465,144C480,128,495,128,511,128C526.5,128,542,128,557,117.3C572.9,107,588,85,604,85.3C619.4,85,635,107,650,133.3C665.8,160,681,192,697,197.3C712.3,203,728,181,743,170.7C758.7,160,774,160,790,144C805.2,128,821,96,836,117.3C851.6,139,867,213,883,202.7C898.1,192,914,96,929,80C944.5,64,960,128,975,138.7C991,149,1006,107,1022,122.7C1037.4,139,1053,213,1068,250.7C1083.9,288,1099,288,1115,282.7C1130.3,277,1146,267,1161,224C1176.8,181,1192,107,1208,64C1223.2,21,1239,11,1254,21.3C1269.7,32,1285,64,1301,69.3C1316.1,75,1332,53,1347,74.7C1362.6,96,1378,160,1394,165.3C1409,171,1425,117,1432,90.7L1440,64L1440,320L1432.3,320C1424.5,320,1409,320,1394,320C1378.1,320,1363,320,1347,320C1331.6,320,1316,320,1301,320C1285.2,320,1270,320,1254,320C1238.7,320,1223,320,1208,320C1192.3,320,1177,320,1161,320C1145.8,320,1130,320,1115,320C1099.4,320,1084,320,1068,320C1052.9,320,1037,320,1022,320C1006.5,320,991,320,975,320C960,320,945,320,929,320C913.5,320,898,320,883,320C867.1,320,852,320,836,320C820.6,320,805,320,790,320C774.2,320,759,320,743,320C727.7,320,712,320,697,320C681.3,320,666,320,650,320C634.8,320,619,320,604,320C588.4,320,573,320,557,320C541.9,320,526,320,511,320C495.5,320,480,320,465,320C449,320,434,320,418,320C402.6,320,387,320,372,320C356.1,320,341,320,325,320C309.7,320,294,320,279,320C263.2,320,248,320,232,320C216.8,320,201,320,186,320C170.3,320,155,320,139,320C123.9,320,108,320,93,320C77.4,320,62,320,46,320C31,320,15,320,8,320L0,320Z"></path></svg>