<?xml version="1.0" standalone="no"?><svg xmlns="http://www.w3.org/2000/svg" viewBox="0 0 1440 320"><path fill="#273036" fill-opacity="1" d="M0,192L7.5,170.7C15,149,30,107,45,85.3C60,64,75,64,90,101.3C105,139,120,213,135,234.7C150,256,165,224,180,181.3C195,139,210,85,225,69.3C240,53,255,75,270,117.3C285,160,300,224,315,234.7C330,245,345,203,360,197.3C375,192,390,224,405,208C420,192,435,128,450,117.3C465,107,480,149,495,138.7C510,128,525,64,540,69.3C555,75,570,149,585,160C600,171,615,117,630,117.3C645,117,660,171,675,192C690,213,705,203,720,170.7C735,139,750,85,765,74.7C780,64,795,96,810,101.3C825,107,840,85,855,74.7C870,64,885,64,900,85.3C915,107,930,149,945,176C960,203,975,213,990,229.3C1005,245,1020,267,1035,272C1050,277,1065,267,1080,240C1095,213,1110,171,1125,176C1140,181,1155,235,1170,234.7C1185,235,1200,181,1215,186.7C1230,192,1245,256,1260,256C1275,256,1290,192,1305,181.3C1320,171,1335,213,1350,224C1365,235,1380,213,1395,218.7C1410,224,1425,256,1433,272L1440,288L1440,320L1432.5,320C1425,320,1410,320,1395,320C1380,320,1365,320,1350,320C1335,320,1320,320,1305,320C1290,320,1275,320,1260,320C1245,320,1230,320,1215,320C1200,320,1185,320,1170,320C1155,320,1140,320,1125,320C1110,320,1095,320,1080,320C1065,320,1050,320,1035,320C1020,320,1005,320,990,320C975,320,960,320,945,320C930,320,915,320,900,320C885,320,870,320,855,320C840,320,825,320,810,320C795,320,780,320,765,320C750,320,735,320,720,320C705,320,690,320,675,320C660,320,645,320,630,320C615,320,600,320,585,320C570,320,555,320,540,320C525,320,510,320,495,320C480,320,465,320,450,320C435,320,420,320,405,320C390,320,375,320,360,320C345,320,330,320,315,320C300,320,285,320,270,320C255,320,240,320,225,320C210,320,195,320,180,320C165,320,150,320,135,320C120,320,105,320,90,320C75,320,60,320,45,320C30,320,15,320,8,320L0,320Z"></path></svg>