<?xml version="1.0" standalone="no"?><svg xmlns="http://www.w3.org/2000/svg" viewBox="0 0 1440 320"><path fill="#ffffff" fill-opacity="1" d="M0,64L7.7,106.7C15.5,149,31,235,46,272C61.9,309,77,299,93,256C108.4,213,124,139,139,106.7C154.8,75,170,85,186,117.3C201.3,149,217,203,232,229.3C247.7,256,263,256,279,240C294.2,224,310,192,325,192C340.6,192,356,224,372,234.7C387.1,245,403,235,418,213.3C433.5,192,449,160,465,144C480,128,495,128,511,128C526.5,128,542,128,557,117.3C572.9,107,588,85,604,85.3C619.4,85,635,107,650,133.3C665.8,160,681,192,697,197.3C712.3,203,728,181,743,170.7C758.7,160,774,160,790,144C805.2,128,821,96,836,117.3C851.6,139,867,213,883,202.7C898.1,192,914,96,929,80C944.5,64,960,128,975,138.7C991,149,1006,107,1022,122.7C1037.4,139,1053,213,1068,250.7C1083.9,288,1099,288,1115,282.7C1130.3,277,1146,267,1161,224C1176.8,181,1192,107,1208,64C1223.2,21,1239,11,1254,21.3C1269.7,32,1285,64,1301,69.3C1316.1,75,1332,53,1347,74.7C1362.6,96,1378,160,1394,165.3C1409,171,1425,117,1432,90.7L1440,64L1440,0L1432.3,0C1424.5,0,1409,0,1394,0C1378.1,0,1363,0,1347,0C1331.6,0,1316,0,1301,0C1285.2,0,1270,0,1254,0C1238.7,0,1223,0,1208,0C1192.3,0,1177,0,1161,0C1145.8,0,1130,0,1115,0C1099.4,0,1084,0,1068,0C1052.9,0,1037,0,1022,0C1006.5,0,991,0,975,0C960,0,945,0,929,0C913.5,0,898,0,883,0C867.1,0,852,0,836,0C820.6,0,805,0,790,0C774.2,0,759,0,743,0C727.7,0,712,0,697,0C681.3,0,666,0,650,0C634.8,0,619,0,604,0C588.4,0,573,0,557,0C541.9,0,526,0,511,0C495.5,0,480,0,465,0C449,0,434,0,418,0C402.6,0,387,0,372,0C356.1,0,341,0,325,0C309.7,0,294,0,279,0C263.2,0,248,0,232,0C216.8,0,201,0,186,0C170.3,0,155,0,139,0C123.9,0,108,0,93,0C77.4,0,62,0,46,0C31,0,15,0,8,0L0,0Z"></path></svg>